<mxfile host="app.diagrams.net" modified="2023-11-04T17:58:59.427Z" agent="Mozilla/5.0 (Macintosh; Intel Mac OS X 10_15_7) AppleWebKit/537.36 (KHTML, like Gecko) Chrome/117.0.0.0 Safari/537.36" etag="N4VZvxkfNLZaqXz5ghA2" version="22.0.8" type="device">
  <diagram name="Página-1" id="P5jDpygFyqUun_ALHUFy">
    <mxGraphModel dx="1878" dy="1372" grid="1" gridSize="10" guides="1" tooltips="1" connect="1" arrows="1" fold="1" page="1" pageScale="1" pageWidth="827" pageHeight="1169" math="0" shadow="0">
      <root>
        <mxCell id="0" />
        <mxCell id="1" parent="0" />
        <mxCell id="_VvWD0kXemOAvJawVME3-4" style="edgeStyle=orthogonalEdgeStyle;rounded=0;orthogonalLoop=1;jettySize=auto;html=1;" edge="1" parent="1" source="_VvWD0kXemOAvJawVME3-1" target="_VvWD0kXemOAvJawVME3-2">
          <mxGeometry relative="1" as="geometry" />
        </mxCell>
        <mxCell id="_VvWD0kXemOAvJawVME3-5" style="edgeStyle=orthogonalEdgeStyle;rounded=0;orthogonalLoop=1;jettySize=auto;html=1;entryX=0.5;entryY=0;entryDx=0;entryDy=0;" edge="1" parent="1" source="_VvWD0kXemOAvJawVME3-1" target="_VvWD0kXemOAvJawVME3-3">
          <mxGeometry relative="1" as="geometry" />
        </mxCell>
        <mxCell id="_VvWD0kXemOAvJawVME3-1" value="INICIO" style="rounded=1;whiteSpace=wrap;html=1;" vertex="1" parent="1">
          <mxGeometry x="320" y="280" width="120" height="60" as="geometry" />
        </mxCell>
        <mxCell id="_VvWD0kXemOAvJawVME3-8" style="edgeStyle=orthogonalEdgeStyle;rounded=0;orthogonalLoop=1;jettySize=auto;html=1;" edge="1" parent="1" source="_VvWD0kXemOAvJawVME3-2">
          <mxGeometry relative="1" as="geometry">
            <mxPoint x="380" y="520" as="targetPoint" />
            <Array as="points">
              <mxPoint x="260" y="490" />
              <mxPoint x="381" y="490" />
            </Array>
          </mxGeometry>
        </mxCell>
        <mxCell id="_VvWD0kXemOAvJawVME3-9" style="edgeStyle=orthogonalEdgeStyle;rounded=0;orthogonalLoop=1;jettySize=auto;html=1;entryX=0;entryY=0.5;entryDx=0;entryDy=0;" edge="1" parent="1" source="_VvWD0kXemOAvJawVME3-2" target="_VvWD0kXemOAvJawVME3-3">
          <mxGeometry relative="1" as="geometry" />
        </mxCell>
        <mxCell id="_VvWD0kXemOAvJawVME3-11" value="" style="edgeStyle=orthogonalEdgeStyle;rounded=0;orthogonalLoop=1;jettySize=auto;html=1;" edge="1" parent="1" source="_VvWD0kXemOAvJawVME3-2" target="_VvWD0kXemOAvJawVME3-10">
          <mxGeometry relative="1" as="geometry" />
        </mxCell>
        <mxCell id="_VvWD0kXemOAvJawVME3-2" value="INICIAR SESIÓN" style="rounded=1;whiteSpace=wrap;html=1;" vertex="1" parent="1">
          <mxGeometry x="200" y="400" width="120" height="60" as="geometry" />
        </mxCell>
        <mxCell id="_VvWD0kXemOAvJawVME3-7" style="edgeStyle=orthogonalEdgeStyle;rounded=0;orthogonalLoop=1;jettySize=auto;html=1;" edge="1" parent="1" source="_VvWD0kXemOAvJawVME3-3" target="_VvWD0kXemOAvJawVME3-6">
          <mxGeometry relative="1" as="geometry" />
        </mxCell>
        <mxCell id="_VvWD0kXemOAvJawVME3-3" value="REGISTRARSE" style="rounded=1;whiteSpace=wrap;html=1;" vertex="1" parent="1">
          <mxGeometry x="440" y="400" width="120" height="60" as="geometry" />
        </mxCell>
        <mxCell id="_VvWD0kXemOAvJawVME3-18" style="edgeStyle=orthogonalEdgeStyle;rounded=0;orthogonalLoop=1;jettySize=auto;html=1;entryX=0;entryY=0.5;entryDx=0;entryDy=0;" edge="1" parent="1" source="_VvWD0kXemOAvJawVME3-6" target="_VvWD0kXemOAvJawVME3-15">
          <mxGeometry relative="1" as="geometry" />
        </mxCell>
        <mxCell id="_VvWD0kXemOAvJawVME3-19" style="edgeStyle=orthogonalEdgeStyle;rounded=0;orthogonalLoop=1;jettySize=auto;html=1;entryX=0;entryY=0.5;entryDx=0;entryDy=0;" edge="1" parent="1" source="_VvWD0kXemOAvJawVME3-6" target="_VvWD0kXemOAvJawVME3-16">
          <mxGeometry relative="1" as="geometry" />
        </mxCell>
        <mxCell id="_VvWD0kXemOAvJawVME3-20" style="edgeStyle=orthogonalEdgeStyle;rounded=0;orthogonalLoop=1;jettySize=auto;html=1;entryX=0;entryY=0.5;entryDx=0;entryDy=0;" edge="1" parent="1" source="_VvWD0kXemOAvJawVME3-6" target="_VvWD0kXemOAvJawVME3-17">
          <mxGeometry relative="1" as="geometry" />
        </mxCell>
        <mxCell id="_VvWD0kXemOAvJawVME3-26" style="edgeStyle=orthogonalEdgeStyle;rounded=0;orthogonalLoop=1;jettySize=auto;html=1;entryX=0.5;entryY=0;entryDx=0;entryDy=0;" edge="1" parent="1" source="_VvWD0kXemOAvJawVME3-6" target="_VvWD0kXemOAvJawVME3-13">
          <mxGeometry relative="1" as="geometry" />
        </mxCell>
        <mxCell id="_VvWD0kXemOAvJawVME3-27" style="edgeStyle=orthogonalEdgeStyle;rounded=0;orthogonalLoop=1;jettySize=auto;html=1;" edge="1" parent="1" source="_VvWD0kXemOAvJawVME3-6" target="_VvWD0kXemOAvJawVME3-24">
          <mxGeometry relative="1" as="geometry" />
        </mxCell>
        <mxCell id="_VvWD0kXemOAvJawVME3-37" style="edgeStyle=orthogonalEdgeStyle;rounded=0;orthogonalLoop=1;jettySize=auto;html=1;entryX=0.5;entryY=0;entryDx=0;entryDy=0;" edge="1" parent="1" source="_VvWD0kXemOAvJawVME3-6" target="_VvWD0kXemOAvJawVME3-1">
          <mxGeometry relative="1" as="geometry">
            <mxPoint x="-70" y="150" as="targetPoint" />
            <Array as="points">
              <mxPoint x="-60" y="520" />
              <mxPoint x="-60" y="260" />
              <mxPoint x="380" y="260" />
            </Array>
          </mxGeometry>
        </mxCell>
        <mxCell id="_VvWD0kXemOAvJawVME3-6" value="HOME" style="rounded=1;whiteSpace=wrap;html=1;" vertex="1" parent="1">
          <mxGeometry x="320" y="520" width="120" height="60" as="geometry" />
        </mxCell>
        <mxCell id="_VvWD0kXemOAvJawVME3-12" style="edgeStyle=orthogonalEdgeStyle;rounded=0;orthogonalLoop=1;jettySize=auto;html=1;entryX=0;entryY=0.5;entryDx=0;entryDy=0;" edge="1" parent="1" source="_VvWD0kXemOAvJawVME3-10" target="_VvWD0kXemOAvJawVME3-1">
          <mxGeometry relative="1" as="geometry">
            <Array as="points">
              <mxPoint x="60" y="310" />
            </Array>
          </mxGeometry>
        </mxCell>
        <mxCell id="_VvWD0kXemOAvJawVME3-10" value="RECUPERAR&lt;br&gt;CONTRASEÑA" style="rounded=1;whiteSpace=wrap;html=1;" vertex="1" parent="1">
          <mxGeometry y="400" width="120" height="60" as="geometry" />
        </mxCell>
        <mxCell id="_VvWD0kXemOAvJawVME3-38" style="edgeStyle=orthogonalEdgeStyle;rounded=0;orthogonalLoop=1;jettySize=auto;html=1;entryX=0;entryY=0.25;entryDx=0;entryDy=0;" edge="1" parent="1" source="_VvWD0kXemOAvJawVME3-13" target="_VvWD0kXemOAvJawVME3-6">
          <mxGeometry relative="1" as="geometry">
            <Array as="points">
              <mxPoint x="130" y="670" />
              <mxPoint x="130" y="535" />
            </Array>
          </mxGeometry>
        </mxCell>
        <mxCell id="_VvWD0kXemOAvJawVME3-13" value="USUARIO" style="rounded=1;whiteSpace=wrap;html=1;" vertex="1" parent="1">
          <mxGeometry x="160" y="640" width="120" height="60" as="geometry" />
        </mxCell>
        <mxCell id="_VvWD0kXemOAvJawVME3-28" value="" style="edgeStyle=orthogonalEdgeStyle;rounded=0;orthogonalLoop=1;jettySize=auto;html=1;" edge="1" parent="1" source="_VvWD0kXemOAvJawVME3-14" target="_VvWD0kXemOAvJawVME3-25">
          <mxGeometry relative="1" as="geometry" />
        </mxCell>
        <mxCell id="_VvWD0kXemOAvJawVME3-14" value="CALENDARIO" style="rounded=1;whiteSpace=wrap;html=1;" vertex="1" parent="1">
          <mxGeometry x="720" y="600" width="120" height="60" as="geometry" />
        </mxCell>
        <mxCell id="_VvWD0kXemOAvJawVME3-21" style="edgeStyle=orthogonalEdgeStyle;rounded=0;orthogonalLoop=1;jettySize=auto;html=1;entryX=0.5;entryY=0;entryDx=0;entryDy=0;" edge="1" parent="1" source="_VvWD0kXemOAvJawVME3-15" target="_VvWD0kXemOAvJawVME3-14">
          <mxGeometry relative="1" as="geometry" />
        </mxCell>
        <mxCell id="_VvWD0kXemOAvJawVME3-15" value="JACUZZI" style="rounded=1;whiteSpace=wrap;html=1;" vertex="1" parent="1">
          <mxGeometry x="520" y="520" width="120" height="60" as="geometry" />
        </mxCell>
        <mxCell id="_VvWD0kXemOAvJawVME3-22" value="" style="edgeStyle=orthogonalEdgeStyle;rounded=0;orthogonalLoop=1;jettySize=auto;html=1;" edge="1" parent="1" source="_VvWD0kXemOAvJawVME3-16" target="_VvWD0kXemOAvJawVME3-14">
          <mxGeometry relative="1" as="geometry" />
        </mxCell>
        <mxCell id="_VvWD0kXemOAvJawVME3-16" value="PISCINA" style="rounded=1;whiteSpace=wrap;html=1;" vertex="1" parent="1">
          <mxGeometry x="520" y="600" width="120" height="60" as="geometry" />
        </mxCell>
        <mxCell id="_VvWD0kXemOAvJawVME3-23" style="edgeStyle=orthogonalEdgeStyle;rounded=0;orthogonalLoop=1;jettySize=auto;html=1;entryX=0.5;entryY=1;entryDx=0;entryDy=0;" edge="1" parent="1" source="_VvWD0kXemOAvJawVME3-17" target="_VvWD0kXemOAvJawVME3-14">
          <mxGeometry relative="1" as="geometry" />
        </mxCell>
        <mxCell id="_VvWD0kXemOAvJawVME3-17" value="ZONA JUEGOS" style="rounded=1;whiteSpace=wrap;html=1;" vertex="1" parent="1">
          <mxGeometry x="520" y="680" width="120" height="60" as="geometry" />
        </mxCell>
        <mxCell id="_VvWD0kXemOAvJawVME3-32" style="edgeStyle=orthogonalEdgeStyle;rounded=0;orthogonalLoop=1;jettySize=auto;html=1;entryX=0;entryY=0.5;entryDx=0;entryDy=0;" edge="1" parent="1" source="_VvWD0kXemOAvJawVME3-24" target="_VvWD0kXemOAvJawVME3-31">
          <mxGeometry relative="1" as="geometry">
            <Array as="points">
              <mxPoint x="380" y="830" />
            </Array>
          </mxGeometry>
        </mxCell>
        <mxCell id="_VvWD0kXemOAvJawVME3-24" value="RESERVAS DIA ACTUAL" style="rounded=1;whiteSpace=wrap;html=1;" vertex="1" parent="1">
          <mxGeometry x="320" y="720" width="120" height="60" as="geometry" />
        </mxCell>
        <mxCell id="_VvWD0kXemOAvJawVME3-29" style="edgeStyle=orthogonalEdgeStyle;rounded=0;orthogonalLoop=1;jettySize=auto;html=1;entryX=0.75;entryY=0;entryDx=0;entryDy=0;" edge="1" parent="1" source="_VvWD0kXemOAvJawVME3-25" target="_VvWD0kXemOAvJawVME3-6">
          <mxGeometry relative="1" as="geometry">
            <Array as="points">
              <mxPoint x="940" y="500" />
              <mxPoint x="410" y="500" />
            </Array>
          </mxGeometry>
        </mxCell>
        <mxCell id="_VvWD0kXemOAvJawVME3-33" style="edgeStyle=orthogonalEdgeStyle;rounded=0;orthogonalLoop=1;jettySize=auto;html=1;entryX=1;entryY=0.5;entryDx=0;entryDy=0;" edge="1" parent="1" source="_VvWD0kXemOAvJawVME3-25" target="_VvWD0kXemOAvJawVME3-31">
          <mxGeometry relative="1" as="geometry" />
        </mxCell>
        <mxCell id="_VvWD0kXemOAvJawVME3-25" value="RESERVAS DIARIAS" style="rounded=1;whiteSpace=wrap;html=1;" vertex="1" parent="1">
          <mxGeometry x="880" y="600" width="120" height="60" as="geometry" />
        </mxCell>
        <mxCell id="_VvWD0kXemOAvJawVME3-30" style="edgeStyle=orthogonalEdgeStyle;rounded=0;orthogonalLoop=1;jettySize=auto;html=1;entryX=0.067;entryY=1.033;entryDx=0;entryDy=0;entryPerimeter=0;" edge="1" parent="1" source="_VvWD0kXemOAvJawVME3-24" target="_VvWD0kXemOAvJawVME3-6">
          <mxGeometry relative="1" as="geometry">
            <Array as="points">
              <mxPoint x="350" y="740" />
              <mxPoint x="350" y="740" />
            </Array>
          </mxGeometry>
        </mxCell>
        <mxCell id="_VvWD0kXemOAvJawVME3-34" style="edgeStyle=orthogonalEdgeStyle;rounded=0;orthogonalLoop=1;jettySize=auto;html=1;entryX=0.008;entryY=0.65;entryDx=0;entryDy=0;entryPerimeter=0;" edge="1" parent="1" source="_VvWD0kXemOAvJawVME3-31" target="_VvWD0kXemOAvJawVME3-6">
          <mxGeometry relative="1" as="geometry">
            <mxPoint x="290" y="560" as="targetPoint" />
            <Array as="points">
              <mxPoint x="300" y="850" />
              <mxPoint x="300" y="559" />
            </Array>
          </mxGeometry>
        </mxCell>
        <mxCell id="_VvWD0kXemOAvJawVME3-31" value="NUEVA RESERVA" style="rounded=1;whiteSpace=wrap;html=1;" vertex="1" parent="1">
          <mxGeometry x="760" y="800" width="120" height="60" as="geometry" />
        </mxCell>
      </root>
    </mxGraphModel>
  </diagram>
</mxfile>
